<svg width="48" height="42" viewBox="0 0 48 42" fill="none" xmlns="http://www.w3.org/2000/svg">
<g id="8723195_more_dots_icon 1">
<path id="Vector" d="M29 21C29 23.8995 26.6495 26.25 23.75 26.25C20.8505 26.25 18.5 23.8995 18.5 21C18.5 18.1005 20.8505 15.75 23.75 15.75C26.6495 15.75 29 18.1005 29 21Z" fill="#E0E0E0" fill-opacity="0.5"/>
<path id="Vector_2" d="M10.5 21C10.5 23.8995 8.1495 26.25 5.25 26.25C2.35051 26.25 0 23.8995 0 21C0 18.1005 2.35051 15.75 5.25 15.75C8.1495 15.75 10.5 18.1005 10.5 21Z" fill="#E0E0E0"/>
<path id="Vector_3" d="M47.5 21C47.5 23.8995 45.1496 26.25 42.25 26.25C39.3504 26.25 37 23.8995 37 21C37 18.1005 39.3504 15.75 42.25 15.75C45.1496 15.75 47.5 18.1005 47.5 21Z" fill="#E0E0E0" fill-opacity="0.5"/>
</g>
</svg>
