<svg width="120" height="24" viewBox="0 0 120 24" fill="none" xmlns="http://www.w3.org/2000/svg">
<g id="Arrows">
<path id="Arrow 1" d="M68 10.5C67.1716 10.5 66.5 11.1716 66.5 12C66.5 12.8284 67.1716 13.5 68 13.5V10.5ZM119.061 13.0607C119.646 12.4749 119.646 11.5251 119.061 10.9393L109.515 1.3934C108.929 0.807611 107.979 0.807611 107.393 1.3934C106.808 1.97919 106.808 2.92893 107.393 3.51472L115.879 12L107.393 20.4853C106.808 21.0711 106.808 22.0208 107.393 22.6066C107.979 23.1924 108.929 23.1924 109.515 22.6066L119.061 13.0607ZM68 13.5H118V10.5H68V13.5Z" fill="#DF9130"/>
<path id="Arrow 2" d="M52 10.5C52.8284 10.5 53.5 11.1716 53.5 12C53.5 12.8284 52.8284 13.5 52 13.5V10.5ZM0.939339 13.0607C0.353554 12.4749 0.353554 11.5251 0.939339 10.9393L10.4853 1.3934C11.0711 0.807611 12.0208 0.807611 12.6066 1.3934C13.1924 1.97919 13.1924 2.92893 12.6066 3.51472L4.12132 12L12.6066 20.4853C13.1924 21.0711 13.1924 22.0208 12.6066 22.6066C12.0208 23.1924 11.0711 23.1924 10.4853 22.6066L0.939339 13.0607ZM52 13.5H2V10.5H52V13.5Z" fill="#E0E0E0" fill-opacity="0.1"/>
</g>
</svg>
